<svg xmlns="http://www.w3.org/2000/svg" viewBox="0 0 237.75 171.38"><defs><style>.cls-1{isolation:isolate;}.cls-2{fill:#808184;}.cls-3,.cls-4{fill:#a6a8ab;}.cls-10,.cls-15,.cls-17,.cls-24,.cls-25,.cls-28,.cls-29,.cls-4,.cls-42,.cls-50,.cls-6{opacity:0.5;}.cls-10,.cls-15,.cls-17,.cls-19,.cls-25,.cls-27,.cls-28,.cls-29,.cls-32,.cls-4,.cls-42,.cls-45,.cls-48,.cls-50,.cls-6,.cls-8{mix-blend-mode:multiply;}.cls-5,.cls-6{fill:#bbbdbf;}.cls-24,.cls-7{fill:#fcba17;}.cls-10,.cls-8{fill:#8e3f0a;}.cls-8{opacity:0.2;}.cls-18,.cls-9{fill:#fff;}.cls-11{fill:#231f20;}.cls-12{fill:#e6e7e8;}.cls-13{font-size:2.57px;}.cls-13,.cls-14,.cls-18{font-family:BerlinSansFBDemi-Bold, Berlin Sans FB Demi;font-weight:700;}.cls-14{font-size:1.35px;}.cls-15{fill:#a3a6a8;}.cls-16{fill:#80d9ed;}.cls-17{fill:#00a8c6;}.cls-18{font-size:12.36px;}.cls-19,.cls-25{fill:#d98e1b;}.cls-19,.cls-27,.cls-32{opacity:0.7;}.cls-20{fill:#c07716;}.cls-21{fill:#b1d5e7;}.cls-22{fill:#f99819;}.cls-23{fill:gray;}.cls-24,.cls-30{mix-blend-mode:screen;}.cls-26,.cls-28{fill:#404041;}.cls-27,.cls-29{fill:#be7614;}.cls-30,.cls-47{fill:#f37029;}.cls-31,.cls-32{fill:#dc9d77;}.cls-33{fill:#0a4877;}.cls-34{fill:#654220;}.cls-35{fill:#997147;}.cls-36{fill:#06406c;}.cls-37{fill:#754c28;}.cls-38,.cls-42{fill:#a87c4f;}.cls-39{fill:#0f4e81;}.cls-40{fill:#1968a7;}.cls-41,.cls-50{fill:#8d5d34;}.cls-43{fill:#6d6e70;}.cls-44,.cls-45{fill:#929497;}.cls-45,.cls-48{opacity:0.3;}.cls-46{fill:#b97054;}.cls-48{fill:#b4531b;}.cls-49{fill:#d38963;}</style></defs><g class="cls-1"><g id="Layer_2" data-name="Layer 2"><g id="OBJECTS"><rect class="cls-2" x="202.97" y="138.96" width="0.65" height="1.89"/><path class="cls-3" d="M204.63,140.46v30.7H202v-30.7a.31.31,0,0,1,.31-.31h2A.31.31,0,0,1,204.63,140.46Z"/><path class="cls-4" d="M204.63,140.46v30.7h-.94v-31h.63A.31.31,0,0,1,204.63,140.46Z"/><rect class="cls-4" x="201.96" y="149.29" width="2.67" height="1.13"/><rect class="cls-4" x="201.96" y="159.95" width="2.67" height="1.13"/><path class="cls-5" d="M206.2,170.81v.35a.22.22,0,0,1-.23.22h-5.35a.24.24,0,0,1-.24-.22v-.35a.23.23,0,0,1,.24-.23H206A.23.23,0,0,1,206.2,170.81Z"/><path class="cls-6" d="M206.2,171.16a.22.22,0,0,1-.23.22h-5.36a.24.24,0,0,1-.23-.22Z"/><circle class="cls-3" cx="203.29" cy="137.91" r="1.9"/><circle class="cls-4" cx="203.29" cy="137.91" r="1.46"/><path class="cls-7" d="M204.54,137.91a1.25,1.25,0,1,1-1.25-1.25A1.25,1.25,0,0,1,204.54,137.91Z"/><path class="cls-8" d="M203.71,136.73a1.27,1.27,0,0,1,.29.8,1.25,1.25,0,0,1-1.25,1.25,1.14,1.14,0,0,1-.41-.07,1.25,1.25,0,1,0,1.37-2Z"/><path class="cls-6" d="M206.2,170.81v.35a.22.22,0,0,1-.23.22h-1.81v-.8H206A.23.23,0,0,1,206.2,170.81Z"/><path class="cls-9" d="M203.23,137.05c.1.13,0,.36-.2.53s-.46.19-.56.07,0-.36.2-.53S203.13,136.93,203.23,137.05Z"/><rect class="cls-2" x="231.47" y="138.96" width="0.65" height="1.89"/><path class="cls-3" d="M233.13,140.46v30.7h-2.66v-30.7a.31.31,0,0,1,.31-.31h2A.31.31,0,0,1,233.13,140.46Z"/><path class="cls-4" d="M233.13,140.46v30.7h-.94v-31h.63A.31.31,0,0,1,233.13,140.46Z"/><rect class="cls-4" x="230.47" y="149.29" width="2.67" height="1.13"/><rect class="cls-4" x="230.47" y="159.95" width="2.67" height="1.13"/><path class="cls-5" d="M234.71,170.81v.35a.24.24,0,0,1-.23.22h-5.36a.24.24,0,0,1-.23-.22v-.35a.23.23,0,0,1,.23-.23h5.36A.23.23,0,0,1,234.71,170.81Z"/><path class="cls-6" d="M234.71,171.16a.24.24,0,0,1-.23.22h-5.36a.24.24,0,0,1-.23-.22Z"/><circle class="cls-3" cx="231.8" cy="137.91" r="1.9"/><circle class="cls-4" cx="231.8" cy="137.91" r="1.46"/><path class="cls-7" d="M233.05,137.91a1.25,1.25,0,1,1-1.25-1.25A1.25,1.25,0,0,1,233.05,137.91Z"/><path class="cls-8" d="M232.21,136.73a1.22,1.22,0,0,1,.3.8,1.25,1.25,0,0,1-1.25,1.25,1.16,1.16,0,0,1-.42-.07,1.27,1.27,0,0,0,1,.45,1.25,1.25,0,0,0,.41-2.43Z"/><path class="cls-6" d="M234.71,170.81v.35a.24.24,0,0,1-.23.22h-1.82v-.8h1.82A.23.23,0,0,1,234.71,170.81Z"/><path class="cls-9" d="M231.73,137.05c.1.13,0,.36-.2.53s-.46.19-.56.07,0-.36.2-.53S231.63,136.93,231.73,137.05Z"/><path class="cls-7" d="M237.75,142.32v7a.37.37,0,0,1-.36.38H197.7a.37.37,0,0,1-.36-.38v-7a.37.37,0,0,1,.36-.39h39.69A.37.37,0,0,1,237.75,142.32Z"/><path d="M206.93,149.69h-5.18L197.34,145v-2.63a.37.37,0,0,1,.36-.39h2Z"/><polygon points="218.14 149.69 212.96 149.69 205.74 141.93 210.92 141.93 218.14 149.69"/><polygon points="229.35 149.69 224.17 149.69 216.95 141.93 222.13 141.93 229.35 149.69"/><path d="M237.75,146.68v2.63a.37.37,0,0,1-.36.38h-2l-7.22-7.76h5.18Z"/><path class="cls-7" d="M237.75,152.94v7a.37.37,0,0,1-.36.38H197.7a.37.37,0,0,1-.36-.38v-7a.37.37,0,0,1,.36-.39h39.69A.37.37,0,0,1,237.75,152.94Z"/><path d="M206.93,160.31h-5.18l-4.41-4.74v-2.63a.37.37,0,0,1,.36-.39h2Z"/><polygon points="218.14 160.31 212.96 160.31 205.74 152.55 210.92 152.55 218.14 160.31"/><polygon points="229.35 160.31 224.17 160.31 216.95 152.55 222.13 152.55 229.35 160.31"/><path d="M237.75,157.3v2.63a.37.37,0,0,1-.36.38h-2l-7.22-7.76h5.18Z"/><path class="cls-10" d="M237.39,147.92H197.7a.38.38,0,0,1-.36-.39v1.78a.37.37,0,0,0,.36.38h39.69a.37.37,0,0,0,.36-.38v-1.78A.38.38,0,0,1,237.39,147.92Z"/><path class="cls-10" d="M237.39,158.54H197.7a.38.38,0,0,1-.36-.39v1.78a.37.37,0,0,0,.36.38h39.69a.37.37,0,0,0,.36-.38v-1.78A.38.38,0,0,1,237.39,158.54Z"/><rect class="cls-10" x="211.77" y="142.44" width="11.56" height="18.08" rx="0.98" transform="translate(369.03 -66.07) rotate(90)"/><rect class="cls-11" x="211.77" y="141.8" width="11.56" height="18.08" rx="0.98" transform="translate(368.38 -66.71) rotate(90)"/><rect class="cls-7" x="209.15" y="145.7" width="16.79" height="10.27" rx="0.34"/><circle class="cls-12" cx="209.69" cy="146.25" r="0.22"/><path class="cls-12" d="M225.62,146.25a.22.22,0,0,1-.22.22.22.22,0,0,1,0-.44A.22.22,0,0,1,225.62,146.25Z"/><circle class="cls-12" cx="209.69" cy="155.43" r="0.22"/><path class="cls-12" d="M225.62,155.43a.22.22,0,0,1-.22.22.22.22,0,0,1,0-.44A.22.22,0,0,1,225.62,155.43Z"/><text class="cls-13" transform="translate(213.26 150.88)">UNDER</text><text class="cls-14" transform="translate(212.61 152.29)">CONSTRUCTION</text><path class="cls-5" d="M150.54,168.92v2.46H109.09v-2.46a12,12,0,0,0,4.57-4.52v-7.17H146v7.17A12,12,0,0,0,150.54,168.92Z"/><path class="cls-15" d="M150.54,168.92v2.46h-7c-2.89-2.55-5-7.4-5-7.4v-6.75H146v7.17A12,12,0,0,0,150.54,168.92Z"/><path class="cls-12" d="M152.61,169.81v.26a1.3,1.3,0,0,1-1.3,1.3h-43a1.3,1.3,0,0,1-1.3-1.3v-.26a.92.92,0,0,1,0-.16,1.31,1.31,0,0,1,1.29-1.14h43A1.3,1.3,0,0,1,152.61,169.81Z"/><rect class="cls-15" x="113.66" y="157.23" width="32.32" height="4.62"/><path class="cls-5" d="M191.51,81.72v68.5a9.9,9.9,0,0,1-10,9.56H78.08a9.9,9.9,0,0,1-10-9.56V81.72a10.05,10.05,0,0,1,10-10.35H181.55A10.05,10.05,0,0,1,191.51,81.72Z"/><path class="cls-15" d="M181.55,71.37h-8.77a10.81,10.81,0,0,1,4.53,9v71.31a10,10,0,0,1-4.48,8.14h8.72a9.9,9.9,0,0,0,10-9.57V81.72A10.05,10.05,0,0,0,181.55,71.37Z"/><path class="cls-11" d="M190.33,81.72v68.49a8.72,8.72,0,0,1-8.78,8.39H78.08a8.72,8.72,0,0,1-8.78-8.39V81.72a8.88,8.88,0,0,1,8.78-9.17H181.55A8.88,8.88,0,0,1,190.33,81.72Z"/><path class="cls-16" d="M186.4,81.33v57.23H73.23V81.33a4.86,4.86,0,0,1,4.86-4.85H181.55A4.85,4.85,0,0,1,186.4,81.33Z"/><path class="cls-17" d="M186.4,81.33v57.23h-9.09V80.33a11.28,11.28,0,0,0-.66-3.85h4.9A4.85,4.85,0,0,1,186.4,81.33Z"/><path class="cls-12" d="M191.51,142.89v7.33a9.9,9.9,0,0,1-10,9.56H78.08a9.9,9.9,0,0,1-10-9.56v-7.33Z"/><path class="cls-15" d="M177.31,142.88v8.76a10,10,0,0,1-4.48,8.14h8.72a9.9,9.9,0,0,0,10-9.57v-7.33Z"/><path class="cls-15" d="M152.61,169.82v.25a1.31,1.31,0,0,1-1.3,1.31h-10a2.08,2.08,0,0,0-.21-2.87h10.21A1.31,1.31,0,0,1,152.61,169.82Z"/><text class="cls-18" transform="translate(105.43 112.05)">COMING<tspan x="7.95" y="14.84">SOON</tspan></text><text/><path class="cls-7" d="M87.05,48.74V66.93a2.69,2.69,0,0,1-2.68,2.68h-28a2.69,2.69,0,0,1-2.68-2.68V39.64A2.68,2.68,0,0,1,56.36,37H75.25a3.34,3.34,0,0,1,2.37,1l8.44,8.44A3.35,3.35,0,0,1,87.05,48.74Z"/><rect class="cls-9" x="53.68" y="55.03" width="33.36" height="4.8"/><path class="cls-19" d="M57.34,37V69.61h-1a2.69,2.69,0,0,1-2.68-2.68V39.64A2.68,2.68,0,0,1,56.36,37Z"/><rect class="cls-20" x="60.78" y="51.85" width="0.78" height="17.37"/><rect class="cls-20" x="60.78" y="38.58" width="10.04" height="14.39" rx="0.52"/><rect class="cls-21" x="61.49" y="39.29" width="8.62" height="12.97" rx="0.24"/><path class="cls-20" d="M84.92,47.53l-8.45-8.45a1.7,1.7,0,0,0-1.21-.5H73.14a.7.7,0,0,0-.7.7v13a.7.7,0,0,0,.7.71H84.72a.7.7,0,0,0,.7-.71V48.75A1.72,1.72,0,0,0,84.92,47.53Z"/><path class="cls-21" d="M84.71,48.75V52a.23.23,0,0,1-.23.24H73.38a.24.24,0,0,1-.24-.24V39.52a.24.24,0,0,1,.24-.24h1.88a1,1,0,0,1,.71.29L84.42,48A1,1,0,0,1,84.71,48.75Z"/><path class="cls-22" d="M91.16,68.94v.55a1.23,1.23,0,0,1,0,.2,1.82,1.82,0,0,1-1.81,1.62H53.51a1.83,1.83,0,0,1-1.81-1.62,1.27,1.27,0,0,1,0-.2v-.55a1.82,1.82,0,0,1,1.82-1.81H89.33A1.82,1.82,0,0,1,91.16,68.94Z"/><rect class="cls-19" x="53.68" y="67.13" width="3.65" height="4.19"/><path class="cls-19" d="M91.14,69.69a1.82,1.82,0,0,1-1.81,1.62H53.51a1.83,1.83,0,0,1-1.81-1.62Z"/><path class="cls-23" d="M145,95.36a2.65,2.65,0,0,1-2.65-2.64V37.55a2.65,2.65,0,1,1,5.29,0V92.72A2.64,2.64,0,0,1,145,95.36ZM145,36a1.58,1.58,0,0,0-1.58,1.58V92.72a1.58,1.58,0,1,0,3.16,0V37.55A1.58,1.58,0,0,0,145,36Z"/><path class="cls-23" d="M187.92,31.31h-.11L51.6,3.3,2.45,31.24a.53.53,0,0,1-.73-.2.54.54,0,0,1,.2-.72L51.43,2.18l.19,0,136.4,28a.53.53,0,0,1-.1,1Z"/><path class="cls-7" d="M55.29,3.41c-.35-.91-.73-1.89-1.09-2.8A1,1,0,0,0,53.31,0H49.72a.94.94,0,0,0-.89.61c-.36.91-.74,1.89-1.09,2.8a.83.83,0,0,0-.07.34V7.06a1,1,0,0,0,1,1H54.4a1,1,0,0,0,1-1V3.75A.83.83,0,0,0,55.29,3.41Zm-3.78.78A1.45,1.45,0,1,1,53,2.74,1.45,1.45,0,0,1,51.51,4.19Z"/><rect class="cls-22" x="46.85" y="20.56" width="9.33" height="87.19"/><rect class="cls-19" x="53.43" y="20.56" width="2.75" height="87.19"/><polygon class="cls-19" points="56.18 29.68 56.18 36.96 46.85 34.87 46.85 29.68 56.18 29.68"/><rect class="cls-22" x="47.67" y="6.03" width="7.68" height="19.14"/><rect class="cls-19" x="53.43" y="6.03" width="1.93" height="19.14"/><path class="cls-7" d="M191.23,30.51v1a1.63,1.63,0,0,1-.12.59,1.56,1.56,0,0,1-1.47,1H1.62A1.61,1.61,0,0,1,0,31.45v-3a1.62,1.62,0,0,1,1.34-1.59l1.54-.27L6.22,26l2.89-.49,3.35-.58,2.89-.5,3.34-.57,2.89-.5,3.34-.58,2.89-.5,3.35-.57,2.89-.5,3.34-.58,2.89-.5,3.35-.57,2.88-.5,3.35-.58,1.66-.28,1.56.12,4.26.33,3.67.28,4.25.34,3.67.28,4.25.33,3.68.29,4.25.33,3.67.28,4.25.33,3.68.29,4.25.33,3.67.29,4.25.33,3.68.28,4.25.33,3.67.29,4.25.33,3.68.28,4.25.33,3.67.29,4.25.33,3.68.29,4.25.33,3.67.28,4.26.33,3.67.29,4.25.33,3.67.28,4.26.34,3.67.28,4.25.33,3.68.29,4.25.33,3.67.28,2,.16A1.59,1.59,0,0,1,191.23,30.51Z"/><path d="M9.38,33.06H6L.35,27.42a1.64,1.64,0,0,1,1-.59l1.54-.27Z"/><polygon points="16.69 33.06 13.3 33.06 6.22 25.98 9.11 25.49 16.69 33.06"/><polygon points="24 33.06 20.61 33.06 12.46 24.91 15.35 24.41 24 33.06"/><polygon points="31.3 33.06 27.92 33.06 18.69 23.84 21.58 23.34 31.3 33.06"/><polygon points="38.61 33.06 35.23 33.06 24.93 22.76 27.81 22.26 38.61 33.06"/><polygon points="45.92 33.06 42.53 33.06 31.16 21.68 34.05 21.19 45.92 33.06"/><polygon points="53.23 33.06 49.84 33.06 37.39 20.61 40.28 20.11 53.23 33.06"/><polygon points="60.54 33.06 57.15 33.06 43.63 19.54 46.51 19.04 60.54 33.06"/><polygon points="67.85 33.06 64.46 33.06 49.86 18.46 51.52 18.18 53.08 18.3 67.85 33.06"/><polygon points="75.16 33.06 71.77 33.06 57.34 18.63 61.01 18.91 75.16 33.06"/><polygon points="82.47 33.06 79.08 33.06 65.26 19.25 68.93 19.53 82.47 33.06"/><polygon points="89.77 33.06 86.39 33.06 73.18 19.86 76.86 20.15 89.77 33.06"/><polygon points="97.08 33.06 93.69 33.06 81.11 20.48 84.78 20.76 97.08 33.06"/><polygon points="104.39 33.06 101 33.06 89.03 21.09 92.71 21.38 104.39 33.06"/><polygon points="111.7 33.06 108.31 33.06 96.96 21.71 100.63 22 111.7 33.06"/><polygon points="119.01 33.06 115.62 33.06 104.88 22.33 108.56 22.61 119.01 33.06"/><polygon points="126.32 33.06 122.93 33.06 112.81 22.94 116.48 23.23 126.32 33.06"/><polygon points="133.63 33.06 130.24 33.06 120.73 23.56 124.41 23.84 133.63 33.06"/><polygon points="140.94 33.06 137.55 33.06 128.66 24.17 132.33 24.46 140.94 33.06"/><polygon points="148.24 33.06 144.85 33.06 136.58 24.79 140.26 25.08 148.24 33.06"/><polygon points="155.55 33.06 152.17 33.06 144.51 25.41 148.18 25.69 155.55 33.06"/><polygon points="162.87 33.06 159.48 33.06 152.44 26.02 156.11 26.31 162.87 33.06"/><polygon points="170.17 33.06 166.78 33.06 160.36 26.64 164.03 26.92 170.17 33.06"/><polygon points="177.48 33.06 174.09 33.06 168.29 27.26 171.96 27.54 177.48 33.06"/><polygon points="184.79 33.06 181.4 33.06 176.21 27.87 179.88 28.16 184.79 33.06"/><path d="M191.11,32.07a1.56,1.56,0,0,1-1.47,1h-.93l-4.57-4.57,3.67.28Z"/><path class="cls-22" d="M191.23,30.65v.83a1.59,1.59,0,0,1-1.59,1.58H1.62A1.61,1.61,0,0,1,0,31.45v-.8Z"/><path class="cls-7" d="M61,102.6v60.8H42.07V102.6a5.37,5.37,0,0,1,0-.7,4,4,0,0,1,.6-1.68l1.94-2.85a1.55,1.55,0,0,1,1.23-.78H57.15a1.53,1.53,0,0,1,1.22.78l2,2.85a4,4,0,0,1,.6,1.68A5.37,5.37,0,0,1,61,102.6Z"/><path class="cls-24" d="M60.92,101.9H42.11a4,4,0,0,1,.6-1.68l1.94-2.85a1.55,1.55,0,0,1,1.23-.78H57.15a1.53,1.53,0,0,1,1.22.78l2,2.85A4,4,0,0,1,60.92,101.9Z"/><path class="cls-25" d="M61,102.6v60.8H53.43V96.59h3.72a1.53,1.53,0,0,1,1.22.78l2,2.85A4.32,4.32,0,0,1,61,102.6Z"/><rect class="cls-26" x="15.83" y="20.32" width="11.17" height="20.91" rx="1.51"/><rect class="cls-22" x="139.3" y="30.78" width="11.4" height="13.83" rx="1.24"/><path class="cls-27" d="M152.34,32v1h-11.4V32a1.23,1.23,0,0,1,1.24-1.24h8.92A1.24,1.24,0,0,1,152.34,32Z"/><path class="cls-22" d="M52.37,2.74a.86.86,0,1,1-.86-.85A.86.86,0,0,1,52.37,2.74Z"/><path class="cls-7" d="M150.7,32v2.24H139.3V32a1.23,1.23,0,0,1,1.24-1.24h8.92A1.23,1.23,0,0,1,150.7,32Z"/><rect class="cls-9" x="142.07" y="40.01" width="5.85" height="2.57" rx="0.55"/><circle class="cls-22" cx="51.51" cy="24.75" r="3.01"/><circle class="cls-7" cx="51.51" cy="24.75" r="1.9"/><path class="cls-28" d="M27,21.83v17.9a1.51,1.51,0,0,1-1.51,1.5H22.74V20.32h2.75A1.52,1.52,0,0,1,27,21.83Z"/><rect class="cls-26" x="4.67" y="20.32" width="11.17" height="20.91" rx="1.51"/><path class="cls-28" d="M15.83,21.83v17.9a1.5,1.5,0,0,1-1.5,1.5H11.58V20.32h2.75A1.51,1.51,0,0,1,15.83,21.83Z"/><path class="cls-20" d="M64.55,55.68a1,1,0,1,1-.95-.94A.95.95,0,0,1,64.55,55.68Z"/><path class="cls-11" d="M144.94,105.52a3.57,3.57,0,0,1-3.4-2.51.89.89,0,1,1,1.7-.52,1.76,1.76,0,0,0,1.73,1.26,1.83,1.83,0,0,0,1.75-1.73,1.78,1.78,0,0,0-.87-1.58,3.65,3.65,0,0,1-1.8-3.12v-4a.89.89,0,1,1,1.78,0v4a1.87,1.87,0,0,0,.92,1.59,3.55,3.55,0,0,1-1.74,6.61Z"/><circle class="cls-7" cx="145" cy="92.5" r="3.4"/><path d="M146.27,92.5A1.27,1.27,0,1,1,145,91.22,1.27,1.27,0,0,1,146.27,92.5Z"/><path class="cls-22" d="M77.77,156.16H25.26a.54.54,0,0,1-.54-.53h0a.53.53,0,0,1,.54-.53H77.77a.53.53,0,0,1,.54.53h0A.54.54,0,0,1,77.77,156.16Z"/><path class="cls-22" d="M26.79,162.07h0a.48.48,0,0,1-.47-.48v-7.14a.48.48,0,0,1,.47-.48h0a.49.49,0,0,1,.48.48v7.14A.49.49,0,0,1,26.79,162.07Z"/><path class="cls-22" d="M32.29,162.07h0a.49.49,0,0,1-.48-.48v-7.14a.49.49,0,0,1,.48-.48h0a.48.48,0,0,1,.47.48v7.14A.48.48,0,0,1,32.29,162.07Z"/><path class="cls-22" d="M37.78,162.07h0a.48.48,0,0,1-.47-.48v-7.14a.48.48,0,0,1,.47-.48h0a.48.48,0,0,1,.47.48v7.14A.48.48,0,0,1,37.78,162.07Z"/><path class="cls-22" d="M43.27,162.07h0a.48.48,0,0,1-.47-.48v-7.14a.48.48,0,0,1,.47-.48h0a.49.49,0,0,1,.48.48v7.14A.49.49,0,0,1,43.27,162.07Z"/><path class="cls-22" d="M48.77,162.07h0a.48.48,0,0,1-.47-.48v-7.14a.48.48,0,0,1,.47-.48h0a.48.48,0,0,1,.47.48v7.14A.48.48,0,0,1,48.77,162.07Z"/><path class="cls-22" d="M54.26,162.07h0a.48.48,0,0,1-.47-.48v-7.14a.48.48,0,0,1,.47-.48h0a.48.48,0,0,1,.47.48v7.14A.48.48,0,0,1,54.26,162.07Z"/><path class="cls-22" d="M59.76,162.07h0a.49.49,0,0,1-.48-.48v-7.14a.49.49,0,0,1,.48-.48h0a.48.48,0,0,1,.47.48v7.14A.48.48,0,0,1,59.76,162.07Z"/><path class="cls-22" d="M65.25,162.07h0a.48.48,0,0,1-.47-.48v-7.14a.48.48,0,0,1,.47-.48h0a.48.48,0,0,1,.47.48v7.14A.48.48,0,0,1,65.25,162.07Z"/><path class="cls-22" d="M70.74,162.07h0a.48.48,0,0,1-.47-.48v-7.14a.48.48,0,0,1,.47-.48h0a.49.49,0,0,1,.48.48v7.14A.49.49,0,0,1,70.74,162.07Z"/><path class="cls-22" d="M76.24,162.07h0a.48.48,0,0,1-.47-.48v-7.14a.48.48,0,0,1,.47-.48h0a.48.48,0,0,1,.47.48v7.14A.48.48,0,0,1,76.24,162.07Z"/><rect class="cls-22" x="24.69" y="159.56" width="53.64" height="5.91" rx="1.06"/><path class="cls-19" d="M77.27,159.56H54.94v5.91H77.27a1.06,1.06,0,0,0,1.07-1.06v-3.78A1.07,1.07,0,0,0,77.27,159.56Z"/><rect class="cls-7" x="20.8" y="165.47" width="61.44" height="5.91" rx="1.06"/><path class="cls-25" d="M82.24,166.53v3.78a1.07,1.07,0,0,1-1.07,1.07H57.64v-5.91H81.17A1.06,1.06,0,0,1,82.24,166.53Z"/><path class="cls-29" d="M150.7,32V43.37a1.24,1.24,0,0,1-1.24,1.24h-2.3V30.78h2.3A1.23,1.23,0,0,1,150.7,32Z"/><path class="cls-9" d="M70.11,39.53v.76l-8.62,8.62V46l6.73-6.74h1.65A.24.24,0,0,1,70.11,39.53Z"/><polygon class="cls-9" points="79.8 43.42 73.14 50.08 73.14 46.04 77.78 41.4 79.8 43.42"/><path class="cls-9" d="M70.11,42.27v1.95l-8,8h-.34a.24.24,0,0,1-.24-.24V50.88Z"/><path class="cls-9" d="M81.66,45.27l-7,7h-1.3a.24.24,0,0,1-.24-.24v-.17l7.55-7.55Z"/><path class="cls-7" d="M115.23,170.69H105l.38-2,.5-2.56.57-3,.49-2.56.58-3,.49-2.56.29-1.49a.34.34,0,0,1,.31-.3h3a.34.34,0,0,1,.31.3l.29,1.49.49,2.56.58,3,.49,2.56.57,3,.5,2.56Z"/><polygon points="112.71 157.64 107.49 157.64 107.98 155.08 112.22 155.08 112.71 157.64"/><polygon points="113.78 163.17 106.42 163.17 106.91 160.61 113.29 160.61 113.78 163.17"/><polygon points="114.85 168.7 105.35 168.7 105.85 166.14 114.35 166.14 114.85 168.7"/><path class="cls-19" d="M110.38,154.76l.52,2.68.6,3.11.52,2.67.6,3.11.51,2.68.33,1.68h1.77l-.38-2-.5-2.56-.57-3-.49-2.56-.58-3-.49-2.56-.29-1.49a.34.34,0,0,0-.31-.3H110.1Z"/><path class="cls-30" d="M105.58,168.92l.51-2.65.59-3.06.51-2.64.6-3.07.51-2.64.29-1.53s0,0,0,0h0a.34.34,0,0,0-.31.3l-.29,1.49-.49,2.56-.58,3-.49,2.56-.57,3-.5,2.56-.38,2h.27Z"/><path class="cls-7" d="M116.48,170.79v.35h0c0,.12-.09.23-.19.23H103.91c-.1,0-.18-.11-.19-.23h0v-.35a.22.22,0,0,1,.19-.24h12.38A.22.22,0,0,1,116.48,170.79Z"/><path class="cls-25" d="M116.48,171.15c0,.12-.09.23-.19.23H103.91c-.1,0-.18-.11-.19-.23Z"/><path class="cls-25" d="M116.48,170.79v.35a.22.22,0,0,1-.19.24h-2.41v-.1l-.15-.73h2.57A.22.22,0,0,1,116.48,170.79Z"/><path class="cls-7" d="M195.46,170.69H185.2l.38-2,.5-2.56.57-3,.5-2.56.57-3,.49-2.56.29-1.49a.34.34,0,0,1,.31-.3h3.05a.34.34,0,0,1,.3.3l.29,1.49.49,2.56.58,3,.49,2.56.58,3,.49,2.56Z"/><polygon points="192.94 157.64 187.72 157.64 188.21 155.08 192.45 155.08 192.94 157.64"/><polygon points="194.01 163.17 186.65 163.17 187.15 160.61 193.52 160.61 194.01 163.17"/><polygon points="195.08 168.7 185.58 168.7 186.08 166.14 194.59 166.14 195.08 168.7"/><path class="cls-19" d="M190.61,154.76l.52,2.68.6,3.11.52,2.67.6,3.11.51,2.68.33,1.68h1.77l-.38-2-.49-2.56-.58-3-.49-2.56-.58-3-.49-2.56-.29-1.49a.34.34,0,0,0-.3-.3h-1.53Z"/><path class="cls-30" d="M185.82,168.92l.51-2.65.59-3.06.51-2.64.59-3.07.51-2.64.29-1.53a.08.08,0,0,0,0,0h0a.34.34,0,0,0-.31.3l-.29,1.49-.49,2.56-.57,3-.5,2.56-.57,3-.5,2.56-.38,2h.27Z"/><path class="cls-7" d="M196.71,170.79v.35h0c0,.12-.09.23-.19.23H184.14a.21.21,0,0,1-.18-.23h0v-.35a.22.22,0,0,1,.19-.24h12.38A.22.22,0,0,1,196.71,170.79Z"/><path class="cls-25" d="M196.71,171.15c0,.12-.09.23-.19.23H184.14a.21.21,0,0,1-.18-.23Z"/><path class="cls-25" d="M196.71,170.79v.35a.22.22,0,0,1-.19.24h-2.4l0-.1-.14-.73h2.56A.22.22,0,0,1,196.71,170.79Z"/><path class="cls-7" d="M132.55,171.38a.39.39,0,0,0,.11-.17l.54-3a.34.34,0,0,0-.24-.36l-1.41-.55-2.43-.94-2.82-1.1-2.43-.95-2.82-1.09-2.43-.95-1.88-.73-1.8,9.84Z"/><polygon points="130.81 171.38 131.55 167.3 129.12 166.36 128.21 171.38 130.81 171.38"/><polygon points="125.19 171.38 126.3 165.26 123.87 164.31 122.58 171.38 125.19 171.38"/><polygon points="119.56 171.38 121.05 163.22 118.62 162.27 116.96 171.38 119.56 171.38"/><path class="cls-19" d="M132.55,171.38a.39.39,0,0,0,.11-.17l.27-1.5h-1.5l-2.73,0-3.16,0-2.73,0-3.16,0-2.73,0-1.71,0-.27,1.49Z"/><path class="cls-30" d="M118.37,162.46l2.51,1,2.91,1.13,2.5,1,2.92,1.13,2.5,1,1.46.57,0,0v0a.34.34,0,0,0-.24-.36l-1.41-.55-2.43-.94-2.82-1.1-2.43-.95-2.82-1.09-2.43-.95-1.88-.73,0,.27Z"/><path class="cls-7" d="M115.08,171.38l2-10.86c0-.1-.07-.2-.2-.23l-.34-.06h0a.21.21,0,0,0-.26.14l-2,11Z"/><path class="cls-25" d="M114.47,171.38l2-11.15a.21.21,0,0,0-.26.14l-2,11Z"/><polygon class="cls-31" points="163.22 115 161.95 114.57 157.86 113.17 157.02 115.54 159.88 116.7 161.79 117.48 163.22 115"/><path class="cls-32" d="M159.88,116.7a19.12,19.12,0,0,1,2.07-2.13l1.27.43-1.43,2.48Z"/><path class="cls-33" d="M168.16,115.57c2.07.41,2.85,2.7,1.06,3.8a2.79,2.79,0,0,1-2.21.24l-6.15-2,1.7-3.7Z"/><polygon class="cls-31" points="171.21 111.88 171.03 112.88 170.53 115.71 167.43 115.71 167.8 113.88 168.44 110.77 171.21 111.88"/><path class="cls-32" d="M171.21,111.88l-.18,1a9.56,9.56,0,0,1-3.23,1l.64-3.11Z"/><path class="cls-31" d="M173.24,109.42s0,0,0,0a.29.29,0,0,1,0,.09,4.71,4.71,0,0,1-5,3.38c-1.78-.34-1.84-2.3-1.37-4.72v0a5.12,5.12,0,0,1,.2-.77,4.7,4.7,0,0,1,2.12-2.73,2.52,2.52,0,0,1,.57-.23,2.32,2.32,0,0,1,1.17-.06,2.55,2.55,0,0,1,1.28.66h0A4.81,4.81,0,0,1,173.24,109.42Z"/><path class="cls-32" d="M173.24,109.42s0,0,0,0a39,39,0,0,1-6.43-1.25v0a5.12,5.12,0,0,1,.2-.77,4.7,4.7,0,0,1,2.12-2.73,2.52,2.52,0,0,1,.57-.23l2.46.61A4.81,4.81,0,0,1,173.24,109.42Z"/><path class="cls-34" d="M167.49,166.42a6.23,6.23,0,0,1-1.26,1.34,10.52,10.52,0,0,1-1.56.42,7.21,7.21,0,0,0-1.71.09c-.71.16-1,1.54-1,2.21h9.46s.31-3-.36-4.06Z"/><rect class="cls-35" x="161.71" y="170" width="9.99" height="1.38" rx="0.27"/><path class="cls-36" d="M171.71,166.9,171,139.55l1.86-2.48a2.88,2.88,0,0,0,.57-1.71v-5.29l-4.22.29,0,1.13H166c-.09,1.37.67,31.17.52,35.41Z"/><path class="cls-37" d="M170.49,166.42a6.23,6.23,0,0,1-1.26,1.34,10.21,10.21,0,0,1-1.56.42,7.22,7.22,0,0,0-1.71.09c-.71.16-.94,1.54-1,2.21h9.46s.3-3-.36-4.06Z"/><rect class="cls-38" x="164.72" y="170" width="9.99" height="1.38" rx="0.27"/><path class="cls-39" d="M175,166.9l-2.28-18.45.43-9.15,1.14-2.23a2.88,2.88,0,0,0,.57-1.71v-5.29l-4.23.29,0,1.13h-3.14c-.05.75.33,17,.33,17s2.09,16.45,2,18.37Z"/><path class="cls-40" d="M175.16,131.85l-9.12,0-.75-12.72c.08-.38.15-.72.21-1,.36-1.72.54-2.44,1.93-3.2l3.47-1.41a3.11,3.11,0,0,1,.45.22,6,6,0,0,1,2.74,4.9Z"/><path class="cls-22" d="M175.62,131.87h-10l-.08-3.5-.05-1.84-.16-7.38c.08-.38.15-.72.21-1a4.43,4.43,0,0,0,2.61-1.3h0a8.58,8.58,0,0,0,1.27-1.52,5.22,5.22,0,0,1,2-1.56,8.17,8.17,0,0,1,1.29.38,1.78,1.78,0,0,1,.66.66,8.5,8.5,0,0,1,1.1,2.62,14,14,0,0,1,.37,2.91l.46,6.23.13,1.84Z"/><path class="cls-9" d="M169.71,120c-.13,1.82.32,9.51.47,11.86,0,.43,0,.68,0,.68h-2.08s0-.25,0-.68c-.13-2.2-.5-9.17-.43-12.77a6.38,6.38,0,0,1,.44-2.28h0a8.58,8.58,0,0,0,1.27-1.52,5.22,5.22,0,0,1,2-1.56,8.17,8.17,0,0,1,1.29.38,1.78,1.78,0,0,1,.66.66C170.24,115.17,169.85,118.05,169.71,120Z"/><path class="cls-41" d="M175.49,131v1.46a.16.16,0,0,1-.16.17h-9.59a.16.16,0,0,1-.16-.17V131a.17.17,0,0,1,.16-.17h9.59A.17.17,0,0,1,175.49,131Z"/><path class="cls-38" d="M170.58,131.21v4.62a.39.39,0,0,1-.39.4h-1.05a.4.4,0,0,1-.39-.4v-4.62a.39.39,0,0,1,.11-.27.4.4,0,0,1,.28-.12h1.05l.15,0A.4.4,0,0,1,170.58,131.21Z"/><path class="cls-42" d="M170.58,131.21v2.25l-1.83-.51v-1.74a.39.39,0,0,1,.11-.27l1.48-.09A.4.4,0,0,1,170.58,131.21Z"/><rect class="cls-38" x="168.6" y="130.82" width="2.12" height="1.76" rx="0.19"/><path class="cls-38" d="M167.93,131.18v3.32a.36.36,0,0,1-.36.36h-.76a.36.36,0,0,1-.36-.36v-3.32a.37.37,0,0,1,.09-.24.4.4,0,0,1,.27-.12h.76a.38.38,0,0,1,.27.12A.37.37,0,0,1,167.93,131.18Z"/><path class="cls-42" d="M167.93,131.18v1.43l-1.48-.33v-1.1a.37.37,0,0,1,.09-.24h1.3A.37.37,0,0,1,167.93,131.18Z"/><rect class="cls-38" x="166.25" y="130.82" width="1.89" height="1.03" rx="0.19"/><path class="cls-38" d="M173.85,131.12V134a.33.33,0,0,1-.36.3h-.76a.33.33,0,0,1-.36-.3v-2.86a.33.33,0,0,1,.09-.2.41.41,0,0,1,.27-.1h.76a.43.43,0,0,1,.27.1A.33.33,0,0,1,173.85,131.12Z"/><path class="cls-42" d="M173.85,131.18v1.43l-1.48-.33v-1.1a.37.37,0,0,1,.09-.24h1.3A.37.37,0,0,1,173.85,131.18Z"/><rect class="cls-38" x="172.16" y="130.82" width="1.89" height="1.03" rx="0.19"/><path class="cls-31" d="M160.18,105.89,156,114.22a.81.81,0,0,0,.47,1.15l.69.24,1.13.46,3.21-9.24Z"/><path class="cls-31" d="M159.76,106.94a6.65,6.65,0,0,1,.68-2.5,32.85,32.85,0,0,1,3.31-3.9l.11-.07c.63-.23,0,1.47-.14,1.68a19.42,19.42,0,0,0-1.24,2.11,16.09,16.09,0,0,1-1,3,2.82,2.82,0,0,1-2.11,1.5Z"/><path class="cls-31" d="M161.05,107.58a5.9,5.9,0,0,0,.94-.78,3.26,3.26,0,0,0,.31-.33,7.08,7.08,0,0,0,.51-.71,1.69,1.69,0,0,0,.36-.64.19.19,0,0,0,0-.15c-.05-.07-.15-.06-.24,0a2,2,0,0,0-1,.64,2.77,2.77,0,0,0-.47.88C161.35,106.84,161.34,107.3,161.05,107.58Z"/><polygon class="cls-7" points="175.36 128.37 165.5 128.37 165.45 126.53 175.23 126.53 175.36 128.37"/><path class="cls-31" d="M176.19,127.58a1,1,0,0,1-.12.63l-3.74,7.14h0l-1,1.95a2.48,2.48,0,0,1-3.41.71l-.23-.13a1,1,0,0,1-.53-1.33l1.07-2a1.63,1.63,0,0,1,1.34-.85l1.14-.08,3-6.62-.54-2.41-.66-2.86,3,.15.25,2Z"/><path class="cls-32" d="M175.72,123.87a25.45,25.45,0,0,1-2.6.73l-.66-2.86,3,.15Z"/><path class="cls-40" d="M170.93,117.77c-.61-2,1-3.79,2.86-2.72a2.78,2.78,0,0,1,1.24,1.83l1.14,6.36-4.06.24Z"/><path d="M170.15,107.12s.5,3.25,2.94,3.27l.26-1a2.35,2.35,0,0,1-2-1.5Z"/><path class="cls-7" d="M169,103.91a2.35,2.35,0,0,1,1.91-1,3.12,3.12,0,0,1,3.26,4h-.19l-.25-1.35-1-1.16-2.32-.53-1,.15Z"/><path class="cls-7" d="M174.06,108.2a8.77,8.77,0,0,1-.17,1L165,105.92a.17.17,0,0,1,0-.33l1.84-.06c1.9-2.73,5.85-3,6.91-.71A6.41,6.41,0,0,1,174.06,108.2Z"/><path class="cls-22" d="M173.71,104.82c-1.06-2.25-5-2-6.91.71l1.29.47.37-.37.92.37.07.5,1.91.71.34-.35.92.37.07.47,1.37.5A6.41,6.41,0,0,0,173.71,104.82Z"/><circle class="cls-43" cx="101.35" cy="106.74" r="0.86"/><rect class="cls-44" x="100.98" y="107.26" width="0.75" height="5.4"/><path class="cls-45" d="M101.72,107.26V108a3.58,3.58,0,0,1-.74-.31v-.38Z"/><path class="cls-46" d="M103.12,114.3l-.29-.91a.7.7,0,0,0-.84-.46l-2.19.83a.7.7,0,0,0-.52.68v.79a.71.71,0,0,0,.13.4l.75,1.28a.7.7,0,0,0,1.09,0l1.74-2A.68.68,0,0,0,103.12,114.3Z"/><path class="cls-47" d="M102.15,111.43V120h-1.6v-8.52A.43.43,0,0,1,101,111h.74A.43.43,0,0,1,102.15,111.43Z"/><path class="cls-48" d="M102.15,111.43v8.28h-.62V111h.19A.43.43,0,0,1,102.15,111.43Z"/><path class="cls-49" d="M103.84,121.48l-.69-5.47a2.23,2.23,0,0,0,.23-.84h0a1.11,1.11,0,0,0-1-1.07,1.6,1.6,0,0,1-.64-.1,1.9,1.9,0,0,1-.65-1,.61.61,0,1,0-1.17.37c.12.33.26.76.39,1.16a3.15,3.15,0,0,1,0,1.5,1.07,1.07,0,0,0,0,.4l.91,5.64,0,.27-2.66.33,2.16,5a.71.71,0,0,0,.65.43h1.34C103.87,126.52,103.84,121.48,103.84,121.48Z"/><path class="cls-37" d="M100.41,170.15a3.62,3.62,0,0,0-.81-1.73l-.82-2H95.25l-.82,2a3.81,3.81,0,0,0-.81,1.73,4.76,4.76,0,0,0-.08.66.13.13,0,0,0,.12.15h6.71a.14.14,0,0,0,.13-.15A4.76,4.76,0,0,0,100.41,170.15Z"/><path class="cls-38" d="M93.6,170h6.84a.24.24,0,0,1,.24.24v.91a.24.24,0,0,1-.24.24H93.6a.23.23,0,0,1-.23-.23v-.91A.24.24,0,0,1,93.6,170Z"/><path class="cls-37" d="M92,170.15a3.62,3.62,0,0,0-.81-1.73l-.81-2H86.79l-.82,2a3.81,3.81,0,0,0-.81,1.73,4.76,4.76,0,0,0-.08.66.14.14,0,0,0,.13.15h6.7a.14.14,0,0,0,.13-.15A3.62,3.62,0,0,0,92,170.15Z"/><path class="cls-38" d="M85.14,170H92a.24.24,0,0,1,.24.24v.91a.24.24,0,0,1-.24.24H85.14a.23.23,0,0,1-.23-.23v-.91a.24.24,0,0,1,.24-.24Z"/><path class="cls-31" d="M87.68,121.59l-.09.46-.46,2.37-.34,1.74L84.93,137l1,.68a1.71,1.71,0,0,1,.77,1.45l-.09,2.33a1.07,1.07,0,0,1-1.17.92h-.27A2.55,2.55,0,0,1,82.47,140l.08-2.29h0l1.32-12.39.34-1.65.35-1.72v-.05Z"/><path class="cls-32" d="M87.59,122.05l-.46,2.37c-.95-.22-2.21-.57-2.93-.77l.35-1.72Z"/><path class="cls-40" d="M90.23,113.68c-4,.35-4.81,2.2-4.81,2.2h0a3.71,3.71,0,0,0-.42,1l-1.14,6.36,4.07.24,1.18-5.71s0-.1,0-.14l1.08-.81Z"/><path class="cls-40" d="M95.07,113.68c4,.35,4.81,2.2,4.81,2.2h0a3.42,3.42,0,0,1,.41,1l2,5.92-4.95.68-1.18-5.71a1,1,0,0,1,0-.14l-1.08-.81Z"/><path class="cls-39" d="M99.46,166.84H94.57l-.07-1.66-1.07-27.46a4.53,4.53,0,0,1-1.47,0l-1.07,27.46-.06,1.66H85.94l.06-1.66L87.14,133l0-.68c0-.13,0-.25,0-.38H98.24a2.42,2.42,0,0,1,0,.38l.07,1.82,1.11,31.06Z"/><path class="cls-31" d="M103,127.13a1.1,1.1,0,0,1-.72,1.16,4.91,4.91,0,0,1-1.15.05.8.8,0,0,1-.73-.48l-1.73-4-.21-.5,3.28-.45.36,1a0,0,0,0,1,0,0l.5,1.42A5.16,5.16,0,0,1,103,127.13Z"/><path class="cls-32" d="M102.12,123.91a24.63,24.63,0,0,1-3.43-.08l-.21-.5,3.28-.45Z"/><polygon class="cls-31" points="91.07 111.09 91.89 111.09 93.4 111.09 94.22 111.09 94.91 116.23 93.4 116.23 91.89 116.23 90.38 116.23 91.07 111.09"/><path class="cls-22" d="M96.84,115.06a5.52,5.52,0,0,0-1.63-1.35h-5a5.39,5.39,0,0,0-1.62,1.35h0a6.21,6.21,0,0,0-1.41,4v13.52H98.25V119.05A6.29,6.29,0,0,0,96.84,115.06Z"/><path class="cls-9" d="M90.18,113.71a5.39,5.39,0,0,0-1.62,1.35v17.06h1.67V113.71Z"/><path class="cls-9" d="M95.21,113.71h0v18.41h1.68V115.06A5.52,5.52,0,0,0,95.21,113.71Z"/><path class="cls-31" d="M94.78,108.72a.89.89,0,1,0,.88-.94A.91.91,0,0,0,94.78,108.72Z"/><path class="cls-31" d="M88.74,108.72a.89.89,0,1,0,.89-.94A.92.92,0,0,0,88.74,108.72Z"/><ellipse class="cls-31" cx="92.64" cy="108.25" rx="3.03" ry="4.41"/><ellipse class="cls-11" cx="92.64" cy="108.11" rx="3.6" ry="3.38"/><path class="cls-11" d="M91.4,109.58,91,109a3.25,3.25,0,0,0,1.15-2.25l.66,0A4,4,0,0,1,91.4,109.58Z"/><path class="cls-11" d="M94,109.58a4,4,0,0,1-1.41-2.8l.67,0h0A3.27,3.27,0,0,0,94.42,109Z"/><path class="cls-11" d="M89.1,107.07a3.42,3.42,0,0,0,3.13,2.79h.84a3.42,3.42,0,0,0,3.12-2.79Zm4,2.09h-.81a2.58,2.58,0,0,1-2.38-1.85l2.64-.19h.09l2.84.2A2.59,2.59,0,0,1,93.05,109.16Z"/><path class="cls-7" d="M96.54,106.88c0,.33-.87.62-2.14.76a15.9,15.9,0,0,1-1.76.09c-2.15,0-3.9-.38-3.9-.85a.23.23,0,0,1,.14-.2l.06,0c.13-2.53,1.73-4.54,3.7-4.54h.15c1.91.09,3.43,2.06,3.55,4.53l.06,0A.22.22,0,0,1,96.54,106.88Z"/><path class="cls-41" d="M98.84,131.19v1.45a.38.38,0,0,1-.36.38H86.91a.37.37,0,0,1-.36-.37v-1.45a.37.37,0,0,1,.36-.37H98.48A.37.37,0,0,1,98.84,131.19Z"/><path class="cls-50" d="M98.84,131.19v1.45a.38.38,0,0,1-.36.38H94v-2.2h4.44A.37.37,0,0,1,98.84,131.19Z"/><path class="cls-50" d="M98.84,132.17v.47a.38.38,0,0,1-.36.38H86.91a.37.37,0,0,1-.36-.37v-.47Z"/><path class="cls-38" d="M99.71,130.82V137a.37.37,0,0,1-.36.38H98a.37.37,0,0,1-.36-.38v-6.19Z"/><polygon class="cls-42" points="99.71 130.82 99.71 132.56 97.6 132.12 97.6 130.82 99.71 130.82"/><rect class="cls-38" x="97.39" y="130.82" width="2.52" height="0.98" transform="translate(197.31 262.62) rotate(180)"/><path class="cls-38" d="M96.9,130.82v4.52a.38.38,0,0,1-.36.39h-1a.38.38,0,0,1-.36-.39v-4.52Z"/><polygon class="cls-42" points="96.9 130.82 96.9 132.34 95.21 131.98 95.21 130.82 96.9 130.82"/><rect class="cls-38" x="95.07" y="130.82" width="1.97" height="0.84" transform="translate(192.11 262.48) rotate(180)"/><rect class="cls-7" x="87.14" y="126.53" width="11.11" height="1.84"/><path class="cls-22" d="M94,106.7l.89-.08.1.2c.52,0,1-.08,1.45-.14l-.06,0c-.12-2.47-1.64-4.44-3.55-4.53h-.15c-2,0-3.57,2-3.7,4.54l-.06,0c.44.06.94.1,1.46.14l.1-.2.88.08.07.18,1.25,0,1.25,0Z"/><path class="cls-7" d="M93.49,103.11h-1.7a.15.15,0,0,1-.14-.2l.28-.88a.14.14,0,0,1,.14-.1h1.14a.15.15,0,0,1,.15.1l.28.88A.16.16,0,0,1,93.49,103.11Z"/><rect class="cls-44" x="100.84" y="106.03" width="1.02" height="1.44" rx="0.17"/></g></g></g></svg>